<svg xmlns="http://www.w3.org/2000/svg" width="29" height="30" viewBox="0 0 29 30"><defs><linearGradient id="bkepa" x1="29" x2="0" y1="16" y2="14" gradientUnits="userSpaceOnUse"><stop offset="0" stop-color="#33be6d"/><stop offset="1" stop-color="#0c98b9"/></linearGradient></defs><g><g><path fill="#22252c" d="M28.557 27.323A1.579 1.579 0 0 1 27.42 30c-.436 0-.84-.172-1.141-.486l-7.204-7.482a11.995 11.995 0 0 1-6.95 2.193c-6.686 0-12.127-5.433-12.127-12.113C-.002 5.433 5.438 0 12.125 0c6.69 0 12.13 5.433 12.13 12.112A12.07 12.07 0 0 1 21.41 19.9zM12.125 3.16c-4.94 0-8.962 4.017-8.962 8.952 0 4.936 4.021 8.953 8.962 8.953 4.944 0 8.966-4.017 8.966-8.953 0-4.935-4.022-8.952-8.966-8.952z"/><path fill="url(#bkepa)" d="M28.557 27.323A1.579 1.579 0 0 1 27.42 30c-.436 0-.84-.172-1.141-.486l-7.204-7.482a11.995 11.995 0 0 1-6.95 2.193c-6.686 0-12.127-5.433-12.127-12.113C-.002 5.433 5.438 0 12.125 0c6.69 0 12.13 5.433 12.13 12.112A12.07 12.07 0 0 1 21.41 19.9zM12.125 3.16c-4.94 0-8.962 4.017-8.962 8.952 0 4.936 4.021 8.953 8.962 8.953 4.944 0 8.966-4.017 8.966-8.953 0-4.935-4.022-8.952-8.966-8.952z"/></g></g></svg>